/* XPM */
static char *freeimage[] = {
/* width height num_colors chars_per_pixel */
"48 48 534 2",
/* colors */
"   c #ffffff",
" . c #fcfcfc",
" X c #f7f7f7",
" o c #d4d5d5",
" O c #a1a2a2",
" + c #666868",
" @ c #3b3d3d",
" # c #0a0c0d",
" $ c #040707",
" % c #5d6060",
" & c #fefefe",
" * c #fdfdfd",
" = c #eaeaea",
" - c #cccdcd",
" ; c #959898",
" : c #3c3e40",
" > c #0a0b0c",
" , c #070808",
" < c #060708",
" 1 c #d9dada",
" 2 c #f5f5f5",
" 3 c #b4b6b6",
" 4 c #585c5d",
" 5 c #333637",
" 6 c #222526",
" 7 c #141718",
" 8 c #111314",
" 9 c #0e1111",
" 0 c #0c0e0f",
" q c #090a0b",
" w c #898b8b",
" e c #fbfbfb",
" r c #cacccc",
" t c #969a9b",
" y c #737778",
" u c #3d4244",
" i c #21282a",
" p c #202628",
" a c #1e2425",
" s c #1d2224",
" d c #1b2021",
" f c #181c1d",
" g c #16191a",
" h c #131617",
" j c #101213",
" k c #0d1010",
" l c #090a0a",
" z c #242728",
" x c #f0f0f0",
" c c #f6f6f6",
" v c #e4e5e5",
" b c #d0d2d3",
" n c #868c8e",
" m c #394448",
" M c #303a3d",
" N c #2f383c",
" B c #2e3639",
" V c #2b3337",
" C c #293235",
" Z c #283033",
" A c #262e30",
" S c #242a2c",
" D c #171a1b",
" F c #798082",
" G c #3c484d",
" H c #384449",
" J c #364246",
" K c #354145",
" L c #344044",
" P c #333e42",
" I c #313c3f",
" U c #303a3c",
" Y c #2e363a",
" T c #2d3538",
" R c #2a3336",
" E c #283134",
" W c #272f32",
" Q c #262d30",
" ! c #1c2123",
" ~ c #1a1f20",
" ^ c #171b1c",
" / c #151819",
" ( c #121516",
" ) c #0d0f10",
" _ c #0b0d0e",
" ` c #626565",
" ' c #f9f9f9",
" ] c #5e7077",
" [ c #3a474c",
" { c #39454a",
" } c #343f43",
" | c #323d41",
".  c #2f393c",
".. c #252d2f",
".X c #23292b",
".o c #1f2527",
".O c #1d2324",
".+ c #1c2122",
".@ c #1a1e1f",
".# c #0c0f0f",
".$ c #0b0c0d",
".% c #080909",
".& c #101313",
".* c #e5e5e6",
".= c #556971",
".- c #3b484d",
".; c #323d40",
".: c #050707",
".> c #adafaf",
"., c #babdbe",
".< c #4e6168",
".1 c #46565c",
".2 c #384448",
".3 c #354044",
".4 c #262e31",
".5 c #252c2e",
".6 c #22292b",
".7 c #202729",
".8 c #1f2526",
".9 c #191d1e",
".0 c #3d3e3e",
".q c #f2f2f3",
".w c #6b7478",
".e c #4c5e65",
".r c #4d5f66",
".t c #3c494f",
".y c #39464b",
".u c #374348",
".i c #313d40",
".p c #2e373b",
".a c #2b3336",
".s c #242b2d",
".d c #2f3232",
".f c #292a2a",
".g c #666969",
".h c #202324",
".j c #d0d1d1",
".k c #555d5f",
".l c #47575e",
".z c #4e6067",
".x c #3e4c52",
".c c #3c494e",
".v c #374347",
".b c #22282a",
".n c #232728",
".m c #212526",
".M c #abadae",
".N c #6e7070",
".B c #bec0c0",
".V c #3c4a4f",
".C c #4b5c64",
".Z c #44545a",
".A c #353a3c",
".S c #6d7274",
".D c #2d3334",
".F c #3e4345",
".G c #dadbdb",
".H c #eceded",
".J c #131717",
".K c #e6e7e8",
".L c #eeefef",
".P c #77635d",
".I c #3d4b51",
".U c #333e41",
".Y c #313b3e",
".T c #30393c",
".R c #63686a",
".E c #777c7e",
".W c #2f373a",
".Q c #d5d6d7",
".! c #9b9c9c",
".~ c #a2a4a4",
".^ c #b2b4b4",
"./ c #ab938a",
".( c #47585e",
".) c #54676e",
"._ c #3d4a50",
".` c #495256",
".' c #e2e3e4",
".] c #2c3437",
".[ c #c8c9c9",
".{ c #7a7c7d",
".} c #484a4b",
".| c #393c3d",
"X  c #777a7a",
"X. c #e7e8e8",
"XX c #b9baba",
"Xo c #2e3233",
"XO c #f4f4f4",
"X+ c #cccbca",
"X@ c #455156",
"X# c #50636a",
"X$ c #48585f",
"X% c #d9dbdc",
"X& c #bbbdbd",
"X* c #a8adae",
"X= c #959797",
"X- c #3c4244",
"X; c #151718",
"X: c #070a0a",
"X> c #d5d6d6",
"X, c #f2f2f2",
"X< c #51646c",
"X1 c #3e4c53",
"X2 c #3c474b",
"X3 c #f1f1f1",
"X4 c #333f43",
"X5 c #3d4447",
"X6 c #adafb0",
"X7 c #a3a6a6",
"X8 c #989c9d",
"X9 c #979b9c",
"X0 c #727778",
"Xq c #8e9191",
"Xw c #404546",
"Xe c #232627",
"Xr c #181b1c",
"Xt c #868889",
"Xy c #fafafa",
"Xu c #787e7f",
"Xi c #485960",
"Xp c #546870",
"Xa c #3f4d54",
"Xs c #f7f8f8",
"Xd c #384347",
"Xf c #2e373a",
"Xg c #3f474a",
"Xh c #878a8a",
"Xj c #7e8181",
"Xk c #1d2223",
"Xl c #222728",
"Xz c #9d9e9e",
"Xx c #08090a",
"Xc c #e9e9e9",
"Xv c #d3d4d4",
"Xb c #625a57",
"Xn c #53666d",
"Xm c #51636b",
"XM c #b7bcbe",
"XN c #fafafb",
"XB c #e1e3e3",
"XV c #c6c9ca",
"XC c #c8cacb",
"XZ c #e1e2e2",
"XA c #f1f2f2",
"XS c #c3c3c3",
"XD c #414647",
"XF c #2e3334",
"XG c #0f1112",
"XH c #b3b4b5",
"XJ c #b28270",
"XK c #4f6169",
"XL c #576b73",
"XP c #c8caca",
"XI c #4f5a5e",
"XU c #596265",
"XY c #f7f7f8",
"XT c #f3f3f3",
"XR c #6a6f71",
"XE c #282d2f",
"XW c #2d3335",
"XQ c #3e4142",
"X! c #3a3d3e",
"X~ c #262829",
"X^ c #878989",
"X/ c #474949",
"X( c #b7a69c",
"X) c #48595f",
"X_ c #52656d",
"X` c #404f56",
"X' c #d2d3d4",
"X] c #ebecec",
"X[ c #a9adaf",
"X{ c #e5e6e7",
"X} c #e8e8e9",
"X| c #dcdede",
"o  c #96999a",
"o. c #333c3f",
"oX c #272f31",
"oo c #353b3c",
"oO c #7e7f80",
"o+ c #3d3f40",
"o@ c #a8a9a9",
"o# c #121415",
"o$ c #818282",
"o% c #0f1212",
"o& c #d7d7d8",
"o* c #e1e1e1",
"o= c #3b484e",
"o- c #4a5b62",
"o; c #3e4b51",
"o: c #b0b3b4",
"o> c #c4c8c9",
"o, c #454c4e",
"o< c #74787a",
"o1 c #5c6062",
"o2 c #8d8e8f",
"o3 c #212425",
"o4 c #5f6162",
"o5 c #2e3132",
"o6 c #6f7272",
"o7 c #465053",
"o8 c #495b61",
"o9 c #53666e",
"o0 c #596569",
"oq c #576165",
"ow c #475256",
"oe c #565f62",
"or c #969a9c",
"ot c #868a8c",
"oy c #3e4649",
"ou c #bbbdbe",
"oi c #32393c",
"op c #575b5c",
"oa c #97999b",
"os c #868888",
"od c #9ea0a1",
"of c #7a7c7c",
"og c #1c1f20",
"oh c #545657",
"oj c #1a1c1d",
"ok c #969797",
"ol c #435056",
"oz c #404e55",
"ox c #424f54",
"oc c #8d9598",
"ov c #71787a",
"ob c #404b4e",
"on c #a1a4a6",
"om c #858888",
"oM c #aeb1b3",
"oN c #858787",
"oB c #828585",
"oV c #b7b8b9",
"oC c #e4e4e3",
"oZ c #936d5f",
"oA c #adb0b1",
"oS c #717c80",
"oD c #cacccd",
"oF c #848c8f",
"oG c #6e7578",
"oH c #7e8386",
"oJ c #404a4d",
"oK c #485154",
"oL c #434a4d",
"oP c #6f7577",
"oI c #4d4f50",
"oU c #f8f8f8",
"oY c #c18970",
"oT c #4b5c63",
"oR c #556870",
"oE c #4a575d",
"oW c #636e71",
"oQ c #4c585d",
"o! c #989c9e",
"o~ c #727a7d",
"o^ c #626b6e",
"o/ c #2a3235",
"o( c #111415",
"o) c #d9d9da",
"o_ c #b8baba",
"o` c #45555c",
"o' c #415057",
"o] c #546066",
"o[ c #4c595e",
"o{ c #424f55",
"o} c #505c62",
"o| c #6d767a",
"O  c #838485",
"O. c #ececec",
"OX c #525e64",
"Oo c #222425",
"OO c #e9eaea",
"O+ c #6a615e",
"O@ c #2a3337",
"O# c #c0c2c2",
"O$ c #545a5d",
"O% c #425158",
"O& c #4a4e4e",
"O* c #efefef",
"O= c #7c645a",
"O- c #4e5f67",
"O; c #283135",
"O: c #2d383e",
"O> c #354349",
"O, c #646a6c",
"O< c #43535a",
"O1 c #22292a",
"O2 c #273033",
"O3 c #2f3a3f",
"O4 c #323e44",
"O5 c #324046",
"O6 c #323f45",
"O7 c #313d42",
"O8 c #303b40",
"O9 c #303c40",
"O0 c #313d41",
"Oq c #acadad",
"Ow c #bdbebf",
"Oe c #506269",
"Or c #44545b",
"Ot c #2f3b3f",
"Oy c #35434a",
"Ou c #3e4c54",
"Oi c #334045",
"Op c #37464e",
"Oa c #38474f",
"Os c #313c42",
"Od c #2b3539",
"Of c #344147",
"Og c #2b363a",
"Oh c #4f5658",
"Oj c #dcdcdd",
"Ok c #695c57",
"Ol c #47575d",
"Oz c #343f42",
"Ox c #303a3e",
"Oc c #2d383c",
"Ov c #323f44",
"Ob c #313d43",
"On c #303d42",
"Om c #303d41",
"OM c #2a3438",
"ON c #2c373b",
"OB c #293134",
"OV c #373c3e",
"OC c #6a615a",
"OZ c #1e2325",
"OA c #808383",
"OS c #ad9a91",
"OD c #445359",
"OF c #39464c",
"OG c #333f44",
"OH c #313e43",
"OJ c #303c41",
"OK c #2d363a",
"OL c #2c363a",
"OP c #2a3437",
"OI c #323638",
"OU c #363a3a",
"OY c #212829",
"OT c #1d2325",
"OR c #161a1b",
"OE c #cf9174",
"OW c #b47d66",
"OQ c #725c52",
"O! c #575959",
"O~ c #828484",
"O^ c #c9caca",
"O/ c #dfdbd9",
"O( c #484f52",
"O) c #3d4a51",
"O_ c #38454a",
"O` c #2c353a",
"O' c #2f393e",
"O] c #2e383d",
"O[ c #293236",
"O{ c #293135",
"O} c #252c2f",
"O| c #493f3b",
"+  c #dba082",
"+. c #c78b6f",
"+X c #3f3937",
"+o c #373a3a",
"+O c #606263",
"++ c #868989",
"+@ c #a1a3a3",
"+# c #d9d9d9",
"+$ c #394345",
"+% c #4b5b62",
"+& c #596e77",
"+* c #2e3a3e",
"+= c #2d373b",
"+- c #273032",
"+; c #252d30",
"+: c #8c776d",
"+> c #ceae90",
"+, c #b3846a",
"+< c #0e1011",
"+1 c #2d2e2f",
"+2 c #646564",
"+3 c #858282",
"+4 c #9fa1a1",
"+5 c #d9dadb",
"+6 c #edeeee",
"+7 c #727576",
"+8 c #435259",
"+9 c #283034",
"+0 c #232a2d",
"+q c #202627",
"+w c #3f403f",
"+e c #83847c",
"+r c #24282a",
"+t c #15191a",
"+y c #0c0e0e",
"+u c #1a1918",
"+i c #987564",
"+p c #8b7a72",
"+a c #838484",
"+s c #9fa1a2",
"+d c #bbbbbb",
"+f c #e1e1e2",
"+g c #3a474b",
"+h c #2a3538",
"+j c #1d2426",
"+k c #202527",
"+l c #1e2224",
"+z c #a1705d",
"+x c #b77d64",
"+c c #b3816c",
"+v c #9ea0a0",
"+b c #bcbdbd",
"+n c #d7d7d7",
"+m c #eaebeb",
"+M c #454e51",
"+N c #2b3437",
"+B c #4f4743",
"+V c #d39e82",
"+C c #d49b7d",
"+Z c #1b2022",
"+A c #303233",
"+S c #595d5d",
"+D c #7d8182",
"+F c #bfc0c0",
"+G c #d8d9d9",
"+H c #959899",
"+J c #0e0f10",
"+K c #363839",
"+L c #7a6f6b",
"+P c #928d89",
"+I c #a1a2a3",
"+U c #bdbfbf",
"+Y c #ebebeb",
"+T c #d7d8d8",
/* pixels */
"                                                                                                ",
"                                                                                                ",
"                                                                                                ",
"                                                                       . .                      ",
"                                                         . X o O + @ # $ % X                    ",
"                                         & * X = - ; : > > , < $ $ $ $ $ $ 1                    ",
"                                 . 2 3 4 5 6 7 8 8 9 0 > > q < $ $ $ $ $ $ w .                  ",
"                 & e 2 r t y u i p a s d f f g h 8 j k 0 > > l < $ $ $ $ $ z x                  ",
"   & * c v b n m M N B V C Z A S i p a s d f D g h 8 j 9 0 > > l < $ $ $ $ $ r &                ",
"   F G H J K L P I U Y T R E W Q S i p a ! ~ f ^ / ( 8 9 ) _ > > q < $ $ $ $ ` '                ",
" * ] [ { H J K } | I.  Y T R Z W...X i.o.O.+.@ f g / ( 8 9.#.$ > >.% < $ $ $.&.*                ",
" 2.=.- [ { H J K }.; I.  B T C Z W.. S i.o a.+.@ f g h 8 8 9 0 > > > ,.: $ $ $.> .              ",
".,.<.1.- [ H.2 J.3 }.; M N B V C Z.4.5.6.7.8.O d.9 f g h 8 8 9 0 > > q , $ $ $.0.q              ",
".w.e.r.t [.y {.u J.3 }.i M.p B.a C Z A.s.6 p a s d.9 ^ g h 8 8.d.f >.g.h < $ $ $.j              ",
".k.l.z.x.c [ [ H.v J.3 P.; M.p B.a E Z A S.b p a s.n.n.m g h 8 8.M   z >.% < $ $.N e            ",
".B.V.C.Z.t.- [ { H.v K } P I.  B T C E.A.S.D.F.G c      .H / ( h .   ' > > ,.: $.J.K            ",
".L.P.e.=.I.t.- [ { H J K }.U.Y.T B.R.E C.W 1            .Q.!.~ *       # > > ,.: $.^ *          ",
" ../.(.).x._._.- [ { H J K } |.`.' B.].T         . v.[.{.}.|X X.    XX 0 > > > <.:XoXO          ",
"  X+X@X#X$.x._.c [ [ H.u J.3X%X& M.p BX*    X=X-.6 p a s d.9 f g    X; 9 0 > > q <X:X>          ",
"  X,.v.CX<X1.x._.c [.y HX2X3 XX4 I M NX5X6X7X8X9X0XqX3Xw s d.9Xe =Xr 8 j 9 0 > > q <XtXy        ",
"   *XuXiXpXa.x.I._.c [.cXO  XsXd P I MXf B.]XgXh '    Xj aXkXlXz ^ g h 8 8 ) _ > >.%XxXc        ",
"    XvXbXnXmXa.x.I._.-XM      XNXBXVXCXZXA .        XS i.oXDXF.@ f g / ( 8XG k > > >.%XH        ",
"     cXJXKXLXaXa.x._.t        XPXIXUXY          XTXR..XEXW.o a.+.@ f gXQX!X~X^ 0 > > >X/ c      ",
"     *X(X)X_X`XaXa.x.IX'    X] H J KX[X{X}X|o o. R ZoX.5.X.7oo.O.+oO fo+o@o#o$o% 0 > > >o& &    ",
"      o*o=X#o-XaXaXa.xo;o:  o> {.u J K }.; M N B.ao,o< A.s.Xo1 a so2o3.9o4o5 go6 9 _ > >Xj '    ",
"       Xo7o8o9XaXaXaX1.x._.co0oq.y.vow.3oeor Motoy Rouoi A S.6op aoaos fodofogoh j k 0 >oj =    ",
"        okol.zozXaXaXa.x.x._ox [oc Hov Jobob Ionom ToMoN Z A SoB.4 p.O ~ f D / h 8 9 9.$ >oV &  ",
"        oCoZ.r.rXaXaXaoAoS.IoD.-oF.y HoG KoHoJoKo  YoLoP E W.. S.7.o a !.@ f ^ / ( 8 9.# _oIXO  ",
"        oUoYoToRXaXaXaoEoc.xoW._oQ [ {o! Jo~o^.;.Y.  B To/ Z W...X i.o.O d.@ f g 7o( 8 9 0 >o)  ",
"          o_o`X#o'XaXaXao]o[o{o}.to| [ {.u J K }.;.Y.  B.] C Z W.5.6.7.8 s d.9 f g h 8 8 9 0O  e",
"          O. }XKX_XaXaXaOXozX1.x._.-.- [ H.v J.3 }.; M N B.a C Z.4.5.6 p.8 s ~ f f g h 8 j 9OoOO",
"           .O+o-oRXaXaXaXaXaXaX1.I._.c [.y {.v J.3 P I M.p BO@ C W A.s i p a ! d f ^ g h 8o% kX&",
"           &O#O$X<O%XaXaXaXaXaXaX1.I._.c [ [ H.v J.3 P.; M.p B R E W A S i p a.+ ~ f g 7 ( 8.&O&",
"            O*O=O-.zXaXaXaXaXaXaXa.x.I.t.- [ { H J K }.U.Y.  B T C Z W.. S i.o a.+ ~.@O;O:O>O>Xj",
"             *O,O<X_XaXaXaXaXaXaXaXa.x.I.t.- [ { H J K } |.Y.  B.] C Z WO1..O2O3O4O5O6O7O8O9O0Oq",
"              Owo=OeOrXaXaXaXaXaXaXaXa.x._.c.- [ {.u J K }.;.T.  ZOtOyOuOiO4OpO6OaOsOdOfOgO@OhOj",
"              XAOkOl.rXaXaXaXaXaXaXaXaX1.x._.c [ [ HOzOxOcOvObO4OnOmO9OMONON COB.4.5OVOC sOZOA 2",
"               .OSODXLXaXaXaXaXaXaXaXaXa.I.yOFOGOHOvOHOJO0O3OKOLOtOP Z EOIOUOYOTOROEOWOQO!O~O^  ",
"                O/O(X#XiXaXaX1O)O_ POvOvO3OvOLO`OJO'O]O[ WO{.s iO}.8O|+ +.+X+o+O+++@Ow+#X] X *  ",
"                 X+$+%+&Ov+*OgO7 R Q+=O{ R Q+-+;.5oX.XOT+:+>+,OR+<+1+2+3+4Ow+5+6oU . *          ",
"                 *+7+8+8ON+9 Z+-..+0.4...6+q+w+e+r+t+y+u+i+p+a+s+dX> = 2 .                      ",
"                  +f+g V+h.s.6+j+k+l.@ 7 /+z+x+co4os+v+b+n+m X *                                ",
"                  oU+M+N.5 s+B+V+C+Z+A+S+D+4+F+GO.Xs . *                                        ",
"                    +H+J (+K+L+P+I+Uo&+Y 2 .                                                    ",
"                    O..MX&+T+m X *                                                              ",
"                     & . *                                                                      ",
"                                                                                                ",
"                                                                                                "
};
